<?xml version="1.0" standalone="no"?>
<!DOCTYPE svg PUBLIC "-//W3C//DTD SVG 20010904//EN"
 "http://www.w3.org/TR/2001/REC-SVG-20010904/DTD/svg10.dtd">
<svg version="1.0" xmlns="http://www.w3.org/2000/svg"
 width="192.000000pt" height="192.000000pt" viewBox="0 0 192.000000 192.000000"
 preserveAspectRatio="xMidYMid meet">
<metadata>
Created by potrace 1.14, written by Peter Selinger 2001-2017
</metadata>
<g transform="translate(0.000000,192.000000) scale(0.100000,-0.100000)"
fill="#000000" stroke="none">
<path d="M1200 1742 c-35 -5 -87 -47 -107 -85 -9 -18 -21 -54 -27 -81 -12 -54
-36 -75 -36 -31 0 15 -4 24 -10 20 -10 -6 -27 10 -89 79 -15 17 -25 40 -25 62
-1 32 -3 34 -35 34 -126 0 -223 -157 -143 -232 15 -14 38 -29 51 -33 29 -9 19
-18 -37 -34 -82 -23 -142 -103 -127 -170 6 -29 53 -80 92 -100 30 -16 99 -14
132 4 37 19 69 58 105 128 17 31 32 55 34 53 2 -2 -12 -35 -31 -72 -68 -134
-87 -252 -46 -275 21 -11 21 -10 15 45 -5 40 -3 72 9 113 18 60 68 168 83 177
5 3 12 -24 15 -60 8 -105 70 -188 149 -200 50 -9 121 27 159 79 38 52 38 77 1
77 -20 0 -41 14 -79 53 -50 51 -81 108 -52 93 8 -4 5 0 -5 8 -11 9 -27 16 -36
16 -9 0 -24 6 -34 13 -15 11 -3 12 70 5 129 -11 206 13 220 67 8 33 -1 56 -20
49 -16 -6 -37 13 -107 100 -30 36 -39 55 -35 71 6 25 -10 33 -54 27z m-285
-282 c8 -13 -55 -13 -75 0 -11 7 -4 10 27 10 23 0 45 -4 48 -10z"/>
<path d="M340 971 c0 -5 10 -12 23 -14 13 -3 8 -5 -15 -6 -42 -1 -48 -14 -20
-44 15 -16 17 -40 17 -168 0 -147 0 -149 22 -149 22 0 23 1 26 183 l2 182 3
-187 2 -188 -30 0 c-16 0 -30 -4 -30 -10 0 -6 46 -11 113 -12 l112 -2 -109 -3
c-71 -3 -113 0 -122 8 -11 9 -15 8 -20 -4 -12 -31 6 -37 114 -37 134 0 166 9
220 64 60 60 68 112 24 156 -17 16 -38 30 -46 30 -23 0 -20 17 4 25 28 9 53
50 52 87 -1 38 -35 75 -81 88 -46 13 -261 13 -261 1z m156 -61 c38 0 65 -34
62 -80 l-2 -40 -48 0 -48 0 1 83 c1 45 4 72 6 60 3 -16 11 -23 29 -23z m104
20 c13 -13 20 -32 19 -52 -1 -20 -3 -25 -6 -13 -2 11 -6 30 -9 42 -3 15 -15
26 -37 32 -25 7 -27 9 -9 10 12 1 31 -8 42 -19z m0 -115 c-7 -8 -16 -15 -21
-15 -5 0 -1 8 9 18 20 22 31 19 12 -3z m-91 -99 c48 -7 65 -27 65 -74 0 -21 4
-40 9 -44 10 -6 -52 -16 -100 -17 -22 0 -23 3 -22 92 1 51 4 82 6 71 3 -16 14
-23 42 -28z m97 28 c19 -15 19 -15 -1 -6 -11 5 -27 12 -35 15 -13 5 -13 6 1 6
8 1 24 -6 35 -15z m21 -46 c-3 -8 -6 -5 -6 6 -1 11 2 17 5 13 3 -3 4 -12 1
-19z m0 -60 c-3 -8 -6 -5 -6 6 -1 11 2 17 5 13 3 -3 4 -12 1 -19z m-10 -74
c-3 -3 -12 -4 -19 -1 -8 3 -5 6 6 6 11 1 17 -2 13 -5z"/>
<path d="M883 960 c-18 -11 -33 -25 -33 -32 0 -10 -2 -10 -9 0 -6 11 -13 7
-30 -14 -16 -21 -21 -40 -21 -91 0 -49 3 -62 13 -57 6 4 4 -2 -6 -14 -11 -11
-25 -18 -32 -16 -15 6 -42 -30 -54 -74 -14 -46 17 -106 68 -131 45 -24 83 -26
131 -9 25 8 48 8 94 -1 65 -13 116 -4 116 22 0 7 14 18 31 24 30 12 37 43 8
34 -44 -13 -67 -11 -89 7 -23 18 -23 21 -8 44 9 13 23 44 31 69 12 35 20 45
41 47 56 7 22 22 -49 22 -73 0 -103 -14 -47 -23 15 -2 10 -3 -10 -2 -21 2 -40
-1 -43 -5 -8 -13 40 -101 50 -93 4 5 5 2 1 -4 -4 -7 -9 -13 -10 -13 -9 0 -97
142 -92 147 3 4 6 1 6 -5 0 -18 20 -14 27 6 4 9 19 29 35 44 82 77 -20 179
-119 118z m97 -31 c6 -11 9 -28 7 -37 -4 -13 -5 -12 -6 4 -1 26 -17 40 -51 47
-21 4 -20 4 7 6 23 1 35 -5 43 -20z m-64 -32 c14 -8 16 -77 2 -77 -10 0 -28
60 -27 89 0 16 3 20 6 11 3 -8 12 -19 19 -23z m-79 -24 c-3 -10 -5 -4 -5 12 0
17 2 24 5 18 2 -7 2 -21 0 -30z m20 -75 c-3 -8 -6 -5 -6 6 -1 11 2 17 5 13 3
-3 4 -12 1 -19z m74 -105 c28 -43 42 -69 31 -58 -22 22 -96 135 -88 135 3 0
29 -35 57 -77z m-49 -52 c35 -56 35 -62 -2 -49 -39 13 -60 44 -60 86 0 31 2
33 17 21 9 -8 29 -34 45 -58z m-118 17 c4 -15 21 -44 39 -64 27 -31 28 -35 9
-25 -32 17 -62 70 -61 106 1 31 3 28 13 -17z m246 -72 c0 -2 -7 -7 -16 -10 -8
-3 -12 -2 -9 4 6 10 25 14 25 6z m59 -32 c14 -12 -19 -1 -35 12 -18 14 -18 14
6 3 14 -6 27 -13 29 -15z"/>
<path d="M1220 971 c0 -5 10 -12 23 -14 13 -3 8 -5 -15 -6 -42 -1 -48 -14 -20
-44 15 -16 17 -40 17 -168 0 -147 0 -149 22 -149 22 0 23 1 26 183 l2 182 3
-187 2 -188 -30 0 c-16 0 -30 -4 -30 -10 0 -6 46 -11 113 -12 l112 -2 -109 -3
c-71 -3 -113 0 -122 8 -11 9 -15 8 -20 -4 -12 -31 6 -37 114 -37 134 0 166 9
220 64 60 60 68 112 24 156 -17 16 -38 30 -46 30 -23 0 -20 17 4 25 28 9 53
50 52 87 -1 38 -35 75 -81 88 -46 13 -261 13 -261 1z m156 -61 c38 0 65 -34
62 -80 l-2 -40 -48 0 -48 0 1 83 c1 45 4 72 6 60 3 -16 11 -23 29 -23z m104
20 c13 -13 20 -32 19 -52 -1 -20 -3 -25 -6 -13 -2 11 -6 30 -9 42 -3 15 -15
26 -37 32 -25 7 -27 9 -9 10 12 1 31 -8 42 -19z m0 -115 c-7 -8 -16 -15 -21
-15 -5 0 -1 8 9 18 20 22 31 19 12 -3z m-91 -99 c48 -7 65 -27 65 -74 0 -21 4
-40 9 -44 10 -6 -52 -16 -100 -17 -22 0 -23 3 -22 92 1 51 4 82 6 71 3 -16 14
-23 42 -28z m97 28 c19 -15 19 -15 -1 -6 -11 5 -27 12 -35 15 -13 5 -13 6 1 6
8 1 24 -6 35 -15z m21 -46 c-3 -8 -6 -5 -6 6 -1 11 2 17 5 13 3 -3 4 -12 1
-19z m0 -60 c-3 -8 -6 -5 -6 6 -1 11 2 17 5 13 3 -3 4 -12 1 -19z m-10 -74
c-3 -3 -12 -4 -19 -1 -8 3 -5 6 6 6 11 1 17 -2 13 -5z"/>
<path d="M805 471 c-9 -16 3 -31 26 -31 14 0 19 6 17 17 -4 20 -33 29 -43 14z"/>
<path d="M913 410 c-3 -11 -10 -20 -15 -20 -5 0 -8 -20 -7 -44 2 -25 6 -43 11
-40 5 3 7 8 4 12 -2 4 0 16 5 27 6 15 8 11 8 -20 2 -55 10 -83 28 -90 24 -9
51 4 59 27 5 16 8 18 15 7 7 -9 8 -4 4 16 l-6 30 17 -32 c22 -40 60 -58 97
-44 15 6 30 18 33 26 11 26 -4 29 -24 5 -14 -18 -25 -22 -45 -16 -22 5 -27 12
-27 36 0 30 1 30 56 30 47 0 55 3 50 16 -3 9 -6 20 -6 25 0 16 -60 40 -83 33
-32 -9 -57 -34 -57 -56 0 -11 -4 -16 -10 -13 -6 3 -10 -4 -10 -16 0 -23 -37
-62 -51 -53 -5 3 -9 30 -9 60 0 51 1 54 25 54 14 0 25 5 25 10 0 6 -11 10 -25
10 -18 0 -25 5 -25 20 0 12 -7 20 -16 20 -9 0 -18 -9 -21 -20z m216 -49 c6
-10 7 -21 4 -25 -9 -9 -36 -7 -52 3 -12 8 -12 12 -2 25 18 21 38 20 50 -3z"/>
<path d="M1110 350 c0 -5 5 -10 11 -10 5 0 7 5 4 10 -3 6 -8 10 -11 10 -2 0
-4 -4 -4 -10z"/>
<path d="M597 363 c16 -16 38 -49 49 -75 10 -27 24 -48 30 -48 6 0 24 29 40
64 29 64 42 76 77 68 14 -3 17 -15 17 -68 l0 -64 30 0 c17 0 30 5 30 10 0 6
-4 10 -10 10 -5 0 -10 28 -12 63 l-3 62 -75 2 c-57 2 -71 0 -59 -9 14 -9 13
-14 -4 -49 -10 -22 -21 -39 -24 -39 -2 0 -11 17 -20 37 -10 26 -12 38 -4 41
29 10 6 22 -40 22 l-51 0 29 -27z"/>
<path d="M1210 380 c0 -6 7 -10 15 -10 12 0 15 -14 15 -65 l0 -65 30 0 c17 0
30 5 30 10 0 6 -4 10 -10 10 -11 0 -14 69 -4 94 5 12 9 13 25 3 20 -13 47 3
35 21 -8 13 -136 14 -136 2z"/>
<path d="M590 354 c0 -14 45 -104 52 -104 12 0 10 7 -17 60 -23 45 -35 60 -35
44z"/>
<path d="M785 314 c4 -64 15 -68 15 -6 0 29 -4 52 -9 52 -5 0 -7 -21 -6 -46z"/>
<path d="M1214 314 c5 -64 16 -68 16 -6 0 29 -4 52 -10 52 -5 0 -8 -20 -6 -46z"/>
</g>
</svg>
